Coordinates
version=1
nRows=49
nColumns=12
inDegrees=yes

Units are S.I. units (second, meters, Newtons, ...)
Angles are in degrees

endheader
time	SC_y	SC_z	SC_x	AC_y	AC_z	AC_x	GH_y	GH_z	GH_yy	EL_x	PS_y
       0.0              -30.73          14.76          75.92          42.29         -19.98          -19.3         -63.93           34.0          126.7          47.68          125.9
   0.03698              -30.74          14.76          75.91          42.29         -19.98          -19.3          -63.9          34.01          126.6          47.67          125.9
   0.07396              -30.74          14.76           75.9          42.29         -19.98         -19.29         -63.87          34.01          126.6          47.67          125.9
    0.1109              -30.75          14.76          75.89          42.29         -19.98         -19.29         -63.84          34.01          126.6          47.66          125.9
    0.1479              -30.75          14.75          75.88           42.3         -19.98         -19.28         -63.81          34.01          126.5          47.66          125.9
    0.1849              -30.76          14.75          75.87           42.3         -19.98         -19.27         -63.77          34.01          126.5          47.65          125.9
    0.2219              -30.76          14.75          75.86           42.3         -19.98         -19.27         -63.73          34.01          126.4          47.64          125.9
    0.2589              -30.77          14.75          75.85          42.31         -19.98         -19.26         -63.69          34.01          126.4          47.64          125.8
    0.2959              -30.78          14.75          75.84          42.31         -19.98         -19.25         -63.65          34.01          126.3          47.63          125.8
    0.3328              -30.78          14.74          75.83          42.32         -19.97         -19.24          -63.6          34.01          126.3          47.62          125.8
    0.3698              -30.79          14.74          75.82          42.32         -19.97         -19.23         -63.55          34.01          126.2          47.61          125.8
    0.4068               -30.8          14.74           75.8          42.32         -19.97         -19.22          -63.5          34.01          126.2           47.6          125.8
    0.4438              -30.81          14.73          75.78          42.33         -19.97         -19.21         -63.44          34.02          126.1          47.59          125.7
    0.4808              -30.82          14.73          75.77          42.34         -19.97         -19.19         -63.38          34.02          126.0          47.58          125.7
    0.5177              -30.83          14.73          75.75          42.34         -19.97         -19.18         -63.31          34.02          126.0          47.57          125.7
    0.5547              -30.84          14.72          75.73          42.35         -19.97         -19.17         -63.24          34.02          125.9          47.56          125.7
    0.5917              -30.85          14.72          75.71          42.36         -19.97         -19.15         -63.16          34.02          125.8          47.54          125.6
    0.6287              -30.87          14.71          75.68          42.36         -19.97         -19.13         -63.07          34.02          125.7          47.53          125.6
    0.6657              -30.88          14.71          75.66          42.37         -19.96         -19.11         -62.98          34.03          125.6          47.51          125.5
    0.7026               -30.9           14.7          75.63          42.38         -19.96         -19.09         -62.87          34.03          125.5          47.49          125.5
    0.7396              -30.91           14.7           75.6          42.39         -19.96         -19.07         -62.76          34.03          125.3          47.47          125.5
    0.7766              -30.93          14.69          75.57           42.4         -19.96         -19.04         -62.63          34.03          125.2          47.45          125.4
    0.8136              -30.95          14.68          75.53          42.42         -19.96         -19.02          -62.5          34.04          125.0          47.43          125.4
    0.8506              -30.98          14.67          75.49          42.43         -19.95         -18.98         -62.34          34.04          124.9           47.4          125.3
    0.8876               -31.0          14.66          75.44          42.45         -19.95         -18.95         -62.17          34.04          124.7          47.37          125.2
    0.9245              -31.03          14.65          75.39          42.46         -19.95         -18.91         -61.98          34.05          124.4          47.34          125.1
    0.9615              -31.07          14.64          75.33          42.48         -19.94         -18.87         -61.77          34.05          124.2           47.3          125.1
    0.9985               -31.1          14.63          75.27          42.51         -19.94         -18.82         -61.53          34.06          123.9          47.26          125.0
     1.035              -31.14          14.61          75.19          42.53         -19.93         -18.77         -61.26          34.06          123.6          47.21          124.8
     1.072              -31.19          14.59          75.11          42.56         -19.93          -18.7         -60.95          34.07          123.3          47.16          124.7
     1.109              -31.24          14.58          75.01          42.59         -19.92         -18.63          -60.6          34.08          122.9           47.1          124.6
     1.146              -31.31          14.55          74.91          42.63         -19.92         -18.55          -60.2          34.09          122.4          47.03          124.4
     1.183              -31.38          14.53          74.78          42.67         -19.91         -18.46         -59.73           34.1          121.9          46.95          124.2
      1.22              -31.46           14.5          74.63          42.72          -19.9         -18.35         -59.19          34.11          121.3          46.85          124.0
     1.257              -31.56          14.46          74.46          42.78         -19.89         -18.22         -58.56          34.12          120.6          46.75          123.8
     1.294              -31.67          14.42          74.26          42.85         -19.88         -18.07         -57.82          34.14          119.7          46.62          123.4
     1.331              -31.81          14.37          74.02          42.93         -19.86         -17.89         -56.93          34.16          118.7          46.46          123.1
     1.368              -31.97          14.31          73.73          43.03         -19.84         -17.68         -55.87          34.18          117.5          46.28          122.7
     1.405              -32.17          14.24          73.38          43.15         -19.82         -17.42         -54.59          34.21          116.0          46.06          122.1
     1.442              -32.41          14.15          72.96          43.29         -19.79          -17.1         -53.02          34.25          114.2          45.78          121.5
     1.479               -32.7          14.04          72.43          43.47         -19.76         -16.71         -51.08          34.29          112.0          45.45          120.7
     1.516              -33.07          13.91          71.78          43.69         -19.72         -16.22         -48.67          34.35          109.3          45.03          119.7
     1.553              -33.54          13.74          70.96          43.97         -19.67          -15.6         -45.63          34.41          105.8           44.5          118.5
      1.59              -34.13          13.52          69.91          44.33          -19.6         -14.82         -41.76           34.5          101.4          43.83          116.9
     1.627              -34.89          13.25          68.57          44.79         -19.52         -13.82         -36.81          34.61          95.81          42.97          114.9
     1.664              -35.87          12.89          66.84          45.37         -19.41         -12.54         -30.47          34.75          88.58          41.87          112.3
     1.701              -37.11          12.44          64.65          46.12         -19.27          -10.9         -22.35          34.93          79.35          40.46          109.0
     1.738              -38.67          11.87          61.88          47.06          -19.1         -8.836         -12.16          35.16          67.75          38.69          104.9
     1.775              -40.58          11.18          58.51          48.21         -18.88         -6.324         0.2701          35.44          53.61          36.54          99.83
